<?xml version="1.0" encoding="utf-8"?>
<!-- Generator: Adobe Illustrator 24.0.2, SVG Export Plug-In . SVG Version: 6.00 Build 0)  -->
<svg version="1.1" xmlns="http://www.w3.org/2000/svg" xmlns:xlink="http://www.w3.org/1999/xlink" x="0px" y="0px"
	 viewBox="0 0 24 24" style="enable-background:new 0 0 24 24;" xml:space="preserve">
<style type="text/css">
	.st0{fill:none;}
	.st1{fill:#ffffff;}
</style>
<g id="bounding_box">
	<rect class="st0" width="24" height="24"/>
</g>
<g id="design">
	<path class="st1" d="M18.28,4.65C18.14,4.26,17.76,4,17.34,4H6.66c-0.42,0-0.8,0.26-0.94,0.65L3,12v7c0,1.1,0.9,2,2,2h14
		c1.1,0,2-0.9,2-2v-7L18.28,4.65z M7.35,6h9.3l2.22,6H16c-0.55,0-1,0.45-1,1v2c0,0.55-0.45,1-1,1h-4c-0.55,0-1-0.45-1-1v-2
		c0-0.55-0.45-1-1-1H5.13L7.35,6z"/>
</g>
</svg>
