<?xml version="1.0" encoding="utf-8"?>
<!-- Generator: Adobe Illustrator 24.0.2, SVG Export Plug-In . SVG Version: 6.00 Build 0)  -->
<svg version="1.1" xmlns="http://www.w3.org/2000/svg" xmlns:xlink="http://www.w3.org/1999/xlink" x="0px" y="0px"
	 viewBox="0 0 24 24" style="enable-background:new 0 0 24 24;" xml:space="preserve">
<style type="text/css">
	.st0{fill:none;}
	.st1{fill:#ffffff;}
</style>
<g id="bounding_area">
	<rect class="st0" width="24" height="24"/>
</g>
<g id="design">
	<g>
		<path class="st1" d="M18.25,22H5.75C4.79,22,4,21.21,4,20.25V3.75C4,2.79,4.79,2,5.75,2h12.5C19.21,2,20,2.79,20,3.75v16.5
			C20,21.21,19.21,22,18.25,22z M5.75,3.5C5.61,3.5,5.5,3.61,5.5,3.75v16.5c0,0.14,0.11,0.25,0.25,0.25h12.5
			c0.14,0,0.25-0.11,0.25-0.25V3.75c0-0.14-0.11-0.25-0.25-0.25H5.75z"/>
		<path class="st1" d="M11.76,10.51H7.75C7.34,10.51,7,10.17,7,9.76V5.75C7,5.34,7.34,5,7.75,5h4.01c0.41,0,0.75,0.34,0.75,0.75
			v4.01C12.51,10.17,12.17,10.51,11.76,10.51z M8.5,9.01h2.51V6.5H8.5V9.01z"/>
		<path class="st1" d="M16.25,13.5h-8.5C7.34,13.5,7,13.16,7,12.75S7.34,12,7.75,12h8.5c0.41,0,0.75,0.34,0.75,0.75
			S16.66,13.5,16.25,13.5z"/>
		<path class="st1" d="M16.25,16.26h-8.5C7.34,16.26,7,15.92,7,15.51s0.34-0.75,0.75-0.75h8.5c0.41,0,0.75,0.34,0.75,0.75
			S16.66,16.26,16.25,16.26z"/>
		<path class="st1" d="M11.75,19h-4C7.34,19,7,18.66,7,18.25s0.34-0.75,0.75-0.75h4c0.41,0,0.75,0.34,0.75,0.75S12.16,19,11.75,19z"
			/>
	</g>
</g>
</svg>
