<?xml version="1.0" encoding="utf-8"?>
<!-- Generator: Adobe Illustrator 25.0.1, SVG Export Plug-In . SVG Version: 6.00 Build 0)  -->
<svg version="1.1" id="Layer_1" xmlns="http://www.w3.org/2000/svg" xmlns:xlink="http://www.w3.org/1999/xlink" x="0px" y="0px"
	 viewBox="0 0 430 430" style="enable-background:new 0 0 430 430;" xml:space="preserve">
<style type="text/css">
	.st0{fill:#121331;}
	.st1{fill:#08a88a;}
</style>
<path class="st0" d="M215,398.1C114,398.1,31.9,316,31.9,215S114,31.9,215,31.9S398.1,114,398.1,215S316,398.1,215,398.1z M215,43.9
	c-94.4,0-171.1,76.8-171.1,171.1c0,94.4,76.8,171.1,171.1,171.1c94.4,0,171.1-76.8,171.1-171.1C386.1,120.6,309.4,43.9,215,43.9z"/>
<path class="st1" d="M267.9,107.6c-1.2,0-2.4-0.3-3.4-1.1c-44.9-30.9-97.9-2.2-98.4-1.9c-2.9,1.6-6.5,0.6-8.2-2.3
	c-1.6-2.9-0.6-6.5,2.3-8.2c0.6-0.3,15.2-8.4,36-12.1c27.9-5.1,53.9,0,75.1,14.6c2.7,1.9,3.4,5.6,1.5,8.3
	C271.7,106.7,269.8,107.6,267.9,107.6z"/>
<path class="st1" d="M316.5,170.2c-2,0-3.9-1-5-2.7c-18.6-28.8-46.1-44.4-81.7-46.4c-26.9-1.5-48.3,5.6-48.5,5.6
	c-3.1,1.1-6.5-0.6-7.6-3.8c-1.1-3.1,0.6-6.5,3.8-7.6c1-0.3,23.8-7.9,53-6.2c39.1,2.2,70.6,20.2,91.1,51.9c1.8,2.8,1,6.5-1.8,8.3
	C318.8,169.9,317.6,170.2,316.5,170.2z"/>
<path class="st1" d="M265.1,340.7c-1.3,0-2.6-0.4-3.7-1.3c-2.6-2-3.1-5.8-1-8.4c0.5-0.6,49.1-63.1,48.7-97.3
	c-0.1-12.8-0.8-26.3-7.3-37.7c-27.9-49.3-58.2-54.2-95.3-46.4c-44.1,9.3-72.7-25.5-73.9-26.9c-2.1-2.6-1.7-6.4,0.9-8.4
	c2.6-2.1,6.4-1.7,8.4,0.9c1.1,1.3,25.4,30.5,62.1,22.7c23.3-4.9,40.8-4.3,56.9,2c19.8,7.7,36.6,24.1,51.3,50.2
	c7.9,13.9,8.7,29.8,8.8,43.5c0.4,38.4-49.2,102.2-51.3,104.9C268.7,339.9,266.9,340.7,265.1,340.7z"/>
<path class="st1" d="M100.5,211.3c-2.8,0-5.3-1.9-5.9-4.8c-0.7-3.2,1.4-6.4,4.7-7.1c23.8-5,38.8-20.8,39-20.9
	c0.2-0.2,0.4-0.4,0.6-0.6c3.6-2.9,9.4-8.4,8.3-12.9c-1.8-7.4-19.9-14.2-31.6-16.5c-3.2-0.6-5.4-3.8-4.7-7c0.6-3.2,3.8-5.4,7-4.7
	c6.1,1.2,36.6,8,40.9,25.4c2.1,8.2-2,16.6-12.1,24.9c-2.5,2.6-19.2,18.8-45,24.1C101.3,211.2,100.9,211.3,100.5,211.3z"/>
<path class="st1" d="M114.7,180.9c-4.7,0-8.5-1-9.3-1.2c-3.2-0.9-5.1-4.2-4.2-7.4c0.9-3.2,4.2-5.1,7.3-4.2c2.9,0.8,9.9,1.6,13-1
	c2.5-2.1,6.3-1.8,8.5,0.8c2.1,2.5,1.8,6.3-0.8,8.5C124.9,180,119.4,180.9,114.7,180.9z"/>
<path class="st1" d="M213.9,356c-1.3,0-2.7-0.4-3.8-1.3c-2.6-2.1-3-5.9-0.9-8.4c0.6-0.7,59.1-73.2,70.5-97.1
	c11-23-9.7-54.2-35.1-74.8c-20.4-16.6-48.4-4.4-85.7,37.2c-30.5,34-59.4,23.7-60.6,23.2c-3.1-1.2-4.7-4.6-3.5-7.7
	c1.2-3.1,4.6-4.7,7.7-3.5c1,0.4,22.8,7.5,47.5-20c17.8-19.9,33.6-33.2,48.3-40.9c20.6-10.7,38.8-9.9,53.9,2.4
	c15.6,12.7,28.2,27.9,35.4,42.7c8.3,17.2,9.4,33.3,3,46.7c-12,25.2-69.6,96.4-72,99.5C217.4,355.2,215.7,356,213.9,356z"/>
<path class="st1" d="M185.8,349.5c-1.6,0-3.3-0.7-4.5-2c-2.2-2.5-2-6.3,0.5-8.5c27.4-24.5,93.3-95.1,69.4-126.9
	c-10.4-13.9-20.5-20.9-30.1-20.9c0,0,0,0-0.1,0c-14.8,0-29.2,16.9-40.1,31.6c-22.5,30.4-70.2,44.8-72.2,45.4
	c-3.2,0.9-6.5-0.9-7.5-4.1c-0.9-3.2,0.9-6.5,4.1-7.5c0.6-0.2,45.9-13.9,66-41c13.3-18,29.7-36.4,49.7-36.5c0,0,0.1,0,0.1,0
	c13.8,0,26.7,8.4,39.7,25.7c15.2,20.3,7.5,50.9-23,90.9c-21.7,28.5-47,51.2-48,52.1C188.7,349,187.3,349.5,185.8,349.5z"/>
<path class="st1" d="M159.9,340.9c-1.7,0-3.4-0.7-4.6-2.1c-2.1-2.5-1.8-6.3,0.7-8.5c0.3-0.2,29.2-25,60.8-63
	c12.2-14.6,17.6-26.9,15.5-35.5c-1.4-5.9-6.5-10.7-15.5-14.6c-5.7-2.5-14.5,8.8-24.7,21.9c-5.3,6.8-11.3,14.5-18.1,22
	c-23.8,26-53.9,31.9-55.2,32.1c-3.3,0.6-6.4-1.5-7-4.8c-0.6-3.3,1.5-6.4,4.8-7c0.4-0.1,27.6-5.5,48.5-28.4
	c6.5-7.2,12.4-14.6,17.5-21.2c6.5-8.3,12.1-15.6,17.7-20.4c2.7-2.4,11.1-9.6,21.3-5.2c12.7,5.5,20,13,22.4,22.8
	c3,12.8-2.9,27.8-18,45.9c-32.4,38.8-61.1,63.4-62.3,64.4C162.7,340.4,161.3,340.9,159.9,340.9z"/>
<path class="st1" d="M135.1,319.3c-2.3,0-4.4-1.3-5.5-3.5c-1.4-3-0.1-6.6,2.9-8l0,0c0.5-0.2,52.4-24.7,77.1-73.9
	c1.5-3,5.1-4.2,8.1-2.7c3,1.5,4.2,5.1,2.7,8c-26.6,53.1-80.5,78.4-82.8,79.4C136.8,319.1,135.9,319.3,135.1,319.3z"/>
</svg>
