<?xml version="1.0" encoding="utf-8"?>
<!-- Generator: Adobe Illustrator 24.0.2, SVG Export Plug-In . SVG Version: 6.00 Build 0)  -->
<svg version="1.1" xmlns="http://www.w3.org/2000/svg" xmlns:xlink="http://www.w3.org/1999/xlink" x="0px" y="0px"
	 viewBox="0 0 24 24" style="enable-background:new 0 0 24 24;" xml:space="preserve">
<style type="text/css">
	.st0{fill:none;}
	.st1{fill:#ffffff;}
</style>
<g id="bounding_box">
	<rect x="0" y="0" class="st0" width="24" height="24"/>
</g>
<g id="design">
	<g>
		<path class="st1" d="M21,9.87V19c0,1.1-0.9,2-2,2h-1.98c-1.66,0-3-1.35-3-3v-4H9.98v4c0,1.65-1.34,3-3,3H5c-1.1,0-2-0.9-2-2V9.87
			C3,9.22,3.32,8.6,3.86,8.23l7-4.87c0.68-0.48,1.6-0.48,2.28,0l7,4.87C20.68,8.6,21,9.22,21,9.87z"/>
	</g>
</g>
</svg>
