<?xml version="1.0" encoding="utf-8"?>
<!-- Generator: Adobe Illustrator 24.0.2, SVG Export Plug-In . SVG Version: 6.00 Build 0)  -->
<svg version="1.1" xmlns="http://www.w3.org/2000/svg" xmlns:xlink="http://www.w3.org/1999/xlink" x="0px" y="0px"
	 viewBox="0 0 24 24" style="enable-background:new 0 0 24 24;" xml:space="preserve">
<style type="text/css">
	.st0{fill:none;}
	.st1{fill:#ffffff;}
</style>
<g id="bounding_box">
	<rect class="st0" width="24" height="24"/>
</g>
<g id="design">
	<g>
		<path class="st1" d="M12,2h-0.24C6.24,2.14,1.87,6.72,2,12.24c0.06,2.69,1.18,5.11,2.96,6.86c0.23,0.22,0.47,0.44,0.72,0.64
			s0.5,0.39,0.77,0.57c0.13,0.09,0.27,0.17,0.4,0.26c0.41,0.24,0.84,0.46,1.29,0.65c0.13,0.05,0.26,0.1,0.39,0.16
			c0.02,0,0.04,0.01,0.06,0.02c0.13,0.05,0.27,0.1,0.41,0.14s0.28,0.08,0.42,0.12c0.15,0.04,0.3,0.08,0.45,0.11
			c0.05,0.01,0.1,0.02,0.15,0.03c0.07,0.02,0.15,0.03,0.22,0.04c0.14,0.03,0.29,0.05,0.44,0.07c0.42,0.06,0.86,0.09,1.3,0.09h0.26
			c0.34-0.01,0.68-0.04,1.01-0.08c0.31-0.04,0.62-0.09,0.92-0.16c0.02-0.01,0.03-0.01,0.05-0.01c0.45-0.11,0.89-0.24,1.31-0.4
			c0.15-0.06,0.29-0.12,0.44-0.18c0.1-0.04,0.2-0.09,0.3-0.13c0.36-0.17,0.71-0.37,1.05-0.58c0.14-0.08,0.27-0.17,0.4-0.26
			c0.13-0.09,0.26-0.18,0.38-0.28c0.33-0.25,0.64-0.53,0.94-0.82c1.89-1.87,3.03-4.48,2.96-7.34C21.87,6.32,17.42,2,12,2z
			 M18.17,17.08C17.26,15.82,15.8,15,14.15,15H9.84c-1.64,0-3.1,0.81-4.01,2.07c-1.1-1.34-1.78-3.04-1.83-4.88
			C3.9,7.78,7.4,4.11,11.81,4H12c4.31,0,7.89,3.5,8,7.81C20.05,13.81,19.35,15.65,18.17,17.08z"/>
		<g>
			<path class="st1" d="M15,8.52v3.5c0,0.54-0.44,0.98-0.98,0.98h-2.5C10.13,13,9,11.87,9,10.48V8.52C9,7.13,10.13,6,11.52,6h0.96
				C13.87,6,15,7.13,15,8.52z"/>
		</g>
	</g>
</g>
</svg>
