<?xml version="1.0" encoding="utf-8"?>
<!-- Generator: Adobe Illustrator 24.0.2, SVG Export Plug-In . SVG Version: 6.00 Build 0)  -->
<svg version="1.1" xmlns="http://www.w3.org/2000/svg" xmlns:xlink="http://www.w3.org/1999/xlink" x="0px" y="0px"
	 viewBox="0 0 24 24" style="enable-background:new 0 0 24 24;" xml:space="preserve">
<style type="text/css">
	.st0{fill:none;}
	.st1{display:none;}
	.st2{display:inline;}
	.st3{fill:none;stroke:#fff;stroke-width:0.1;stroke-miterlimit:10;}
	.st4{fill:#ffffff;}
</style>
<g id="bounding_box">
	<rect x="0" y="0" class="st0" width="24" height="24"/>
</g>
<g id="design">
	<path class="st4" d="M19.78,8.72l-6.5-6.5C13.14,2.09,12.96,2,12.76,2H5.75C4.79,2,4,2.79,4,3.75v16.5C4,21.21,4.79,22,5.75,22
		h12.5c0.96,0,1.75-0.79,1.75-1.75V9.24C20,9.04,19.91,8.86,19.78,8.72z M13.5,4.56l3.94,3.94H13.5V4.56z M18.5,20.25
		c0,0.14-0.11,0.25-0.25,0.25H5.75c-0.14,0-0.25-0.11-0.25-0.25V3.75c0-0.14,0.11-0.25,0.25-0.25H12v5.75C12,9.66,12.34,10,12.75,10
		h5.75V20.25z"/>
	<path class="st4" d="M19.78,8.72C19.91,8.86,20,9.04,20,9.24C20,9.05,19.93,8.86,19.78,8.72z M13.28,2.22
		C13.14,2.07,12.95,2,12.76,2C12.96,2,13.14,2.09,13.28,2.22z"/>
	<path class="st4" d="M15.25,14.5h-6.5C8.34,14.5,8,14.16,8,13.75S8.34,13,8.75,13h6.5c0.41,0,0.75,0.34,0.75,0.75
		S15.66,14.5,15.25,14.5z"/>
	<path class="st4" d="M15.25,17.5h-6.5C8.34,17.5,8,17.16,8,16.75S8.34,16,8.75,16h6.5c0.41,0,0.75,0.34,0.75,0.75
		S15.66,17.5,15.25,17.5z"/>
</g>
</svg>
